<?xml version="1.0"?>
<svg xmlns:rdf="http://www.w3.org/1999/02/22-rdf-syntax-ns#" xmlns="http://www.w3.org/2000/svg" xmlns:cc="http://web.resource.org/cc/" xmlns:xlink="http://www.w3.org/1999/xlink" xmlns:dc="http://purl.org/dc/elements/1.1/" xmlns:svg="http://www.w3.org/2000/svg" enable-background="new 0 0 220.542 221.082" xml:space="preserve" version="1.1" y="0px" x="0px" viewBox="0 0 220.542 221.082">
<g id="ornaments_xA0_Image" clip-rule="evenodd" fill-rule="evenodd">
	<path d="m155.99 15.645c1.219 0.328 1.243 0.916 0.585 1.762h-1.174c-0.17-0.949 0.55-1.011 0.58-1.762z"/>
	<path d="m157.16 20.345h1.176v1.174h-1.176v-1.174z"/>
	<path d="m157.16 23.283h1.176v1.174h-1.176v-1.174z"/>
	<path d="m156.58 25.045c2.783 1.953-1.771 5.281-4.111 5.874 0.94-2.384 3.13-3.527 4.11-5.874z"/>
	<path d="m151.88 31.506c-1.724 4.165-7.055 4.375-8.812 7.05-8.816 1.229-15.24 5.955-23.5 7.638-0.229-3.313 4.005-2.164 7.05-3.524 1.506-0.674 1.317-2.25 3.524-1.176 2.622-1.951 5.488-3.406 10.575-4.112 1.107-1.439 2.886-2.207 5.288-2.35 1.53-1.599 2.87-3.392 5.87-3.526z"/>
	<path d="m108.99 59.12h1.174v1.174h-1.174v-1.174z"/>
	<path d="m106.05 60.294c-1.42 1.929-2.81-1.633 0 0z"/>
	<path d="m98.414 73.22c0.476 0.112 0.585 0.59 1.176 0.588-0.113 0.476-0.591 0.586-0.588 1.174-0.476-0.11-0.585-0.588-1.176-0.586 0.112-0.476 0.59-0.586 0.588-1.176z"/>
	<path d="m90.775 80.27c0.096-0.688 1.071-0.495 1.765-0.586v1.762c-1.303 0.322-0.837-1.122-1.765-1.176z"/>
	<path d="m94.302 80.857c0.949-0.165 1.011 0.555 1.762 0.588 0.234 1.141-2.675 0.859-1.762-0.588z"/>
	<path d="m97.825 80.857h1.176v1.176h-1.176v-1.176z"/>
	<path d="m53.764 87.907c-0.873-0.693-2.625-0.509-2.35-2.35 1.618-1.828 4.178 0.732 2.35 2.35z"/>
	<path d="m89.014 91.433c0.086-0.163 1.265-1.087 1.762-0.588 0.406 0.406-2.317 1.619-1.762 0.588z"/>
	<path d="m91.364 91.433c1.179-0.201 1.838 0.12 1.762 1.174h-1.762v-1.174z"/>
	<path d="m71.388 125.51c4.525 4.336-0.139 13.146-0.587 18.211-3.968-1.319-0.339-7.055 0-10.573 0.297-3.08-1.777-6.09 0.587-7.64z"/>
	<path d="m106.05 131.38c-0.208 0.772-1.035 0.926-1.174 1.765-1.496-0.072-2.278-0.856-2.35-2.35 1.75-0.7 1.99-0.16 3.52 0.59z"/>
	<path d="m101.35 133.15c2.261-0.464 2.261 2.812 0 2.35v-2.35z"/>
	<path d="m99.001 134.91c2.651-0.444 2.202 3.926-0.588 2.938-0.186-1.37 0.096-2.26 0.588-2.94z"/>
	<path d="m113.69 137.85c-0.306 0.867-0.87 1.479-1.176 2.35-3.526-0.82-4.628 0.842-8.224 1.762-0.885-1.717-0.817-2.386-0.588-2.938 0.781-1.862 3.619-0.029 3.526 0 2.17-0.7 4.53-2.22 6.46-1.17z"/>
	<path d="m114.28 137.26c2.23-0.511 2.759 1.951 1.763 2.938-1.84 0.26-1.88-1.26-1.76-2.94z"/>
	<path d="m118.39 137.26c1.836-0.27 1.879 1.256 1.762 2.938h-2.35c-0.18-1.37 0.1-2.26 0.59-2.94z"/>
	<path d="m69.038 153.71c2.773 2.627 0.641 7.473 0.588 11.164-0.042 2.873 1.653 5.553 0 7.638-2.271-3.86-1.214-13.99-0.588-18.8z"/>
	<path d="m133.66 154.3c1.494 0.071 2.278 0.855 2.351 2.35-0.708 0.662-1.066 1.679-2.938 1.177-0.07-1.46-0.08-2.84 0.59-3.53z"/>
	<path d="m134.25 158.41c0.946-0.165 1.011 0.558 1.762 0.589v2.35c5.859 7.458 9.662 16.973 14.688 25.264 0.647 1.618 3.743 2.876 2.35 4.699-2.536 1.301-3.457-1.934-4.699-3.525-4.624-5.907-7.591-15.192-14.688-19.388-0.188-1.38-0.927-2.204-0.588-4.112 1.846-0.277 1.552 1.581 2.938 1.763 0.83-1.57-4.69-5.6-1.76-7.63z"/>
	<path d="m163.63 162.52c5.453 3.421-8.587 14.255-9.402 4.7 2.604-0.447 2.718 1.592 4.702 1.762 3.79-1.13 3.09-3.95 4.7-6.46z"/>
	<path d="m168.33 180.15c0.387 4.592-2.97 2.316-4.114 4.7-1.602 0.428-1.182-1.169-2.351-1.177 0.189-0.681 1.819-2.768 2.351-1.176 1.15-0.99 1.34-2.95 4.11-2.34z"/>
	<path d="m104.29 0.369c5.41-0.201 14.245-0.72 19.976 0 19.538 2.453 39.566 11.58 52.875 21.737 11.922 9.099 21.128 20.946 28.201 33.487 7.473 13.253 12.833 27.53 14.688 45.827 3.811 37.625-14.245 70.341-32.901 89.3-13.56 13.779-39.347 28.001-65.212 29.964-32.12 2.436-55.102-6.607-74.027-19.388-11.188-7.555-20.467-15.46-28.2-27.025-12.675-18.94-21.457-43.82-19.392-74.603 1.229-18.326 9.193-35.873 16.449-49.349 3.886-7.217 11.277-15.424 17.625-21.152 0.53-0.478 1.838-0.091 2.35-0.588 2.231-2.164 5.714-6.596 8.812-8.812 3.096-2.216 7.113-3.906 10.575-5.876 6.474-3.684 10.813-5.604 18.801-8.224 2.471-0.811 4.667-2.35 7.05-2.938 2.377-0.588 4.707-0.122 7.05-0.588 3.545-0.703 8.606-1.762 14.1-1.762 0.39 0.001 0.79 0.016 1.18 0.001zm22.91 4.7c-19.545-3.175-43.394 0.882-57.574 6.461-2.345 0.923-5.536 1.066-6.463 3.526 2.484 1.042 6.483 0.567 9.401 1.174 2.197 2.111 5.351 3.268 7.637 5.288 0.927 4.363 5.544 5.032 5.875 9.988 3.086 2.938 6.689 5.07 6.464 9.4-0.296 5.673-5.29 4.769-9.401 7.638 4.351 1.408 8.26-2.089 12.336-3.523 10.406-3.663 20.951-5.054 27.614-11.164 1.434 0.327 1.252 2.273 3.525 1.764 7.669-3.691 18.19-4.528 23.5-10.576-4.815-0.562-8.446-3.806-8.227-8.226 0.168-3.306 3.244-3.918 3.526-7.05-5.76-0.677-11.7-3.641-18.22-4.7zm-2.35 34.076c-1.796 0.425-1.727-1.014-3.524-0.588-4.599 2.845-10.623 4.262-15.275 7.05 4.085-2.161 6.526 0.315 11.75 0 1.534 2.188 2.541 4.903 5.288 5.876 9.284-3.837 19.781-6.459 27.613-11.75 0.055-6.911 9.404-6.839 10.576-13.514 0.598-3.409-1.611-9.512-2.938-10.573-2.219-1.774-6.789-4.253-8.226-4.114-4.982 0.485-7.679 10.54 1.176 9.988 1.007-0.949 1.458-2.458 1.174-4.7-3.079-0.729-1.339 3.361-4.111 2.938-2.568-2.238 0.299-5.893 2.938-6.462 15.68 14.235-15.42 21.782-26.45 25.849zm-64.623-19.388c-0.786-0.586-1.155-1.587-2.35-1.762-0.733 1.778 1.953 3.046 2.35 1.762zm5.874 7.638c1.185-3.483 1.701-7.382-1.763-8.812 0.739 2.785 0.436 6.612 1.763 8.812zm-2.35-5.289c0.51-1.559-1.436-3.564-1.763-2.35 1.21 0.163 0.554 2.19 1.763 2.35zm92.829 21.738c0.596 6.273-2.378 8.979-4.699 12.337v4.7c-3.734 4.884-5.293 11.941-8.224 17.625 3.01-0.399 8.613-3.815 14.1-2.938 1.941 0.311 2.799 1.583 4.7 1.764 1.938 0.139 4.145-0.889 6.461 0 2.95 1.126 2.716 4.057 4.114 5.874 1.04 1.353 2.757 1.795 3.523 2.938 5.854 8.702-6.672 12.29-5.873 20.563 2.701 0.865 2.046-3.172 4.111-1.176 0.381 2.876 0.104 2.761 0 5.876-2.228 2.211-7.116 3.101-11.161 1.762-3.404-2.424-2.689-6.082-4.114-11.164-0.292-1.042-1.473-2.269-1.762-2.936-2.417-5.601 1.778-6.67 2.938-11.164-1.022-1.913-2.581-3.294-4.114-4.7-5.728 0.908-10.877 6.885-11.161 12.337-0.507 9.685 10.695 14.991 14.688 20.563 20.784 9.897 38.701 25.354 37.602 55.225 10.187-15.957 18.288-34.868 18.8-57.574 0.979-43.561-23.01-78.085-52.289-94.59-0.455 0.131-1.16 0.017-1.174 0.588 5.9 8.667 0.93 20.399-6.48 24.076zm-96.353-17.626c1.286-3.182-2.321-5.14-4.7-6.461 0.553 3.167 1.938 5.503 4.7 6.461zm9.987 1.765c3.605-1.045 0.823-6.309-0.588-7.638-1.095 2.362 2.639 5.551 0.588 7.638zm-17.626-6.464c0.072 1.497 0.855 2.278 2.35 2.35 1.132-1.076-0.501-1.989-1.175-2.936-0.129 0.457-0.492 0.681-1.175 0.586zm23.501 6.464c2.959-0.296 1.173-4.695 0-5.876v5.876zm-25.85 0c-2.032 0.463-2.48-0.655-3.525-1.176-0.408 2.586 2.787 4.621 4.7 2.938-0.77-0.01-0.748-1.63 0-1.762 4.429 5.599 14.464 6.56 24.087 5.288 0.252-1.121 1.266-1.477 1.175-2.938-4.631-1.714-9.376 0.892-14.1 0.586-5.018-0.323-7.925-2.826-11.163-5.286 0.716-0.067 1.392-0.177 1.175-1.176-1.385-0.182-1.093-2.039-2.938-1.762 1.351 2.562-2.026 3.578 0.589 5.288zm-7.638-1.176c-11.865 9.854-24.241 25.201-30.55 40.539-5.538 13.464-9.718 31.871-8.813 47.584 1.819 31.604 18.35 59.915 38.775 76.965 2.741-0.199 1.862-4.014 4.701-4.114 5.329-0.318 8.71-0.911 12.924-1.174 2.808-4.296 1.802-9.893 1.763-15.276-0.044-5.98 0.757-12.715 0-18.799-0.481-3.868-2.719-7.88-3.525-12.338-0.917-5.07-0.7-10.239-1.176-14.688-0.334-3.137-4-6.113-5.287-8.227-2.836-4.654-4.797-11.245-2.938-17.625-3.303-5.508-5.084-12.539-5.875-20.561 2.083-3.598 5.522-5.835 6.463-10.576 3.642-1.668 6.583-5.068 4.7-10.576-1.505-0.93-4.65 0.562-7.638 0-0.427-6.034-2.989-9.935-5.875-13.512 2.69-4.016 5.067-11.317 4.113-17.038-0.751-0.031-0.813-0.75-1.762-0.585zm111.63 9.987c-1.582 1.812-1.932 4.652-4.111 6.461-3.191 2.654-9.188 4.234-13.512 5.876-2.173 0.825-4.753 2.046-7.05 2.938-1.557 0.602-6.409 0-5.288 3.523 1.712 2.128 5.111 0 7.05-0.585 8.061-2.448 15.974-6.022 21.737-9.988-0.076-1.449-0.088-2.831 0.588-3.526 5.045-1.417 7.084-5.842 9.4-9.988 0.031-1.011-0.452-1.506-1.177-1.762-1.6 3.334-5.12 4.168-7.64 7.051zm-107.52-1.173c2.938 0.194 4.568 1.697 6.461 2.936-1.117 1.233-1.6 3.101-4.111 2.938-0.279-1.843 1.581-1.551 1.762-2.938-1.823-0.06-1.676 1.85-4.112 1.176-0.134-1.042 0.591-2.943-1.175-2.35-0.608 2.524-1.151 5.116-2.35 7.05 2.937-0.26 2.268 3.737 4.7 2.35 0.457 1.305 1.233 2.29 1.175 4.112-0.88 0.1-2.168-0.21-2.35 0.588 3.519-0.052-0.533 4.312 2.937 4.7 3.2-2.087 7.435-3.141 9.401-6.461 2.876 3.461-5.624 6.342-1.763 11.162 4.478-2.572 7.362-6.739 7.638-13.512-1.072-0.887-3.294-0.624-4.113-1.764 0.141-0.836 0.968-0.99 1.175-1.762-5.483-3.722-6.949-11.458-15.274-12.338-0.001 1.37-0.001 2.741-0.001 4.113zm37.012 7.635c3.899-2.589 0.905-10.212-2.35-11.161 1.833 3.007 2.203 8.094 2.35 11.161zm-22.913-2.936v-3.526c-1.241-0.521-1.737-1.788-3.525-1.762 0.878 2.061 2.231 3.644 3.525 5.288zm20.563-3.526c-0.175-0.521-1.176-2.986-1.762-1.174 1.207-0.514 1.173 2.989 1.762 1.174zm-5.875 2.938c2.197 0.449 4.173 0.72 4.113-2.35-1.488 0.16-3.331 2.522-4.113 0 1.056 0.077 1.375-0.583 1.175-1.762-1.405 0.356-4.263-0.739-4.7 0.585 0.901 1.45 4.141 0.561 3.525 3.527zm-4.7-1.176c-1.371-2.125-4.565 0.382-5.875-2.35-0.825 3.617 4.369 4.59 5.875 2.35zm0 3.527c-4.579 0.457-6.523-4.824-8.813-4.7 1.096 2.705 5.584 9.815 8.813 4.7zm14.101 2.938c2.832-0.418 6.311-6.483 2.35-8.226 1.889 3.636-1.368 5.667-2.35 8.226zm-3.526-1.765c0.032-0.75 0.753-0.812 0.588-1.762-0.338-1.033 0.71-3.452-0.588-3.523v4.112c-0.784 2.35-3.763 2.503-5.287 4.112 2.757 1.776 3.533-1.36 5.875 0-0.776-1.471 2.323-1.839 0.587-2.35-0.14 0.901-0.967 0.085-1.175-0.589zm-2.937-1.173c-1.839-0.708-3.694-1.399-5.875-1.762-1.05 3.681 5.301 4.95 5.875 1.762zm-9.988 4.111c0.333 3.392 4.696 2.388 4.7-0.588-1.892-0.129-2.486 1.04-4.7 0.588zm36.429 1.764c-0.758-1.009-1.932-1.595-3.526-1.764-14.163 5.226-30.205 8.57-37.013 21.151 0.85 8.767 0.624 15.202-4.112 19.388 0.158 6.228-0.902 11.238-5.876 12.338 3.374-6.337 2.816-12.998 5.876-19.388-1.658-1.281-2.826-3.05-5.876-2.938-1.749 1.774-3.111 3.937-4.7 5.874-0.851 4.547 1.325 9.271 1.763 14.102 0.854 9.397-1.566 17.578 4.7 21.149 0.177-5.809-3.64-13.392-1.175-17.625 2.099 0.442 0.299 4.25 0 5.876 5.863 7.855 4.486 17.846 5.875 28.787 0.632 4.982 2.818 10.196 3.525 14.1 2.448 13.528 0.819 28.4-1.175 39.951-1.542 0.215-2.253 1.647-4.112 2.35-3.168 1.198-8.925-0.347-9.401 3.526 1.438-0.456 2.75 1.497 4.7 1.762 3.19 0.431 7.437-1.006 11.163 0 1.16-3.736 3.159-6.634 2.938-11.749 1.894-0.457 3.218-1.482 4.113-2.938-0.142-10.77-1.81-22.251-0.588-32.901 0.276-2.405 1.53-4.647 1.763-7.05s-0.323-4.824 0-7.05c0.267-1.851 1.548-3.526 1.762-5.288 0.665-5.477-0.94-10.103-2.937-14.688-2.088-0.457-2.136-0.079-4.701-0.588-1.648-2.484-2.508-5.389-4.7-5.874-0.444-2.99 0.431-4.662 2.938-4.7 2.47 1.446-0.495 8.329 4.113 7.638-0.08-2.276-2.857-5.685 0.587-6.464 0.403 4.69 1.596 8.587 5.875 9.4-0.642-2.658-4.731-4.293-5.288-8.224-0.323-2.29-0.46-5.195 1.763-7.05 1.265 0.497 2.079 1.446 1.763 3.523 2.802 1.688 7.606 9.498 11.162 4.7-2.724-3.737-8.432-4.492-9.399-9.988-4.001 0.868-3.88-2.386-7.05-2.35 0.041 1.999 0.183 4.1-1.175 4.7-3.79 0.837-6.508-2.477-4.7-5.286 1.308 0.66 1.989 3.713 4.112 1.762 1.152-3.256-6.387-5.111-4.112-9.4 3.389 0.722 1.979 6.244 6.463 5.874 0.919-2.907-3.175-3.837-1.176-5.874 2.508 0.234 2.137 3.347 5.288 2.936 0.908-3.366-4.529-4.943-1.175-7.05 1.345 1.398 2.14 3.345 4.7 3.526 1.947-2.835-2.737-3.311-2.35-6.462 1.623-1.451 2.985 0.92 5.288 0.586 0.6-2.522-2.999-4.533 0-5.874 0.832 1.208 2.765 4.298 2.937 5.874 0.068 0.614-2.368 2.374 0 1.764 5.96-0.641-1.677-6.512-0.586-7.638 1.833 1.205 4.719 1.669 6.463 0-1.259-6.064-13.961-0.045-13.513-5.876 1.778 0.179 2.099 1.817 4.7 1.176 1.906-1.451-2.75-3.122-0.588-4.7 2.192 0.547 2.695 2.787 5.288 2.936 0.882-0.88 1.758-1.767 2.35-2.936-0.912-0.851-2.741-0.784-3.525-1.765-0.151-2.304 2.125-2.182 1.762-4.7-1.729-0.784-3.892-0.483-5.287 0.588 0.461 3.019-5.408 4.769-7.05 7.638 0.431 2.866 1.997 9.62-1.763 9.988 0.582-4.303-1.329-6.113-1.175-9.988 2.337-3.93 7.178-5.357 9.399-9.4 2.852-0.942 7.372-5.577 9.989-2.938-1.5 0.067-3.024 0.11-2.938 1.762 3.768 1.693 9.433 1.162 10.573-2.938-0.44-1.908-4.568-0.132-4.112-2.936 6.777 1.031 17.633 2.929 20.563-2.938-3.1-1.495-6.53 0.076-9.4 0.585zm-28.204 3.524c2.71-0.048 6.067-2.527 4.7-4.7-0.582 2.551-3.799 2.467-4.7 4.7zm-2.937-2.938c1.051 1.556 4.312 1.602 4.7-0.585-2.097 0.446-4.034-1.822-4.7 0.585zm74.021 1.764c-0.229 3.789-3.279 0.583-2.938 3.524-0.124-0.66-0.653-0.913-1.174-1.174 0.401 2.651-0.987 1.346-2.351 1.174-0.492 2.871-2.498 0.6-3.525 2.938-0.125-0.66-0.652-0.916-1.174-1.176-0.187 1.87-0.492 1.991-2.938 1.176-0.093 0.691 0.101 1.666-0.588 1.762-1.154 0.177-1.164-0.793-1.762-1.174-0.502 2.572-1.671 1.074-4.114 1.174 1.009 2.137-2.173 2.663-2.35 5.288 2.936 0.547 5.115-1.446 7.638-2.35 8.346-2.988 18.135-4.262 20.563-12.926-3.47-0.358-1.94 3.366-5.3 1.764zm-32.31-1.176c-3.354 4.086-11.682 3.199-15.861 6.462 5.481 1.719 15.496-1.033 19.975-4.112-1.04-1.109-1.7-2.601-4.11-2.35zm-46.412 7.05c-2.018-1.197 0.298-3.674-1.762-4.111-1.685 1.359 0.187 6.124 1.762 4.111zm52.882-1.762c-6.804 1.439-14.349 3.877-20.564 4.112-0.744 1.038 0.098 4.253 1.176 5.288 8.128-1.076 15.835-2.572 19.973-7.638-0.04-0.751-0.76-0.813-0.59-1.762zm-34.081 8.226c4.235 1.016 9.422 0.75 11.751-1.764-0.923-4.882-10.624-1.862-11.751 1.764zm49.351 4.112c4.929 0.227 7.068-2.333 9.987-4.112-0.354-1.212 0.949-4.083-1.174-3.526-3.892 3.942-11.448 4.219-14.688 8.812 1.56 2.142 3.63-0.646 5.87-1.174zm-33.49-1.176c-0.433 3.62 2.84 2.422 5.288 2.35 6.392-0.187 13.916-2.828 14.1-7.638-5.95 2.297-12.99 5.237-19.39 5.288zm-46.411-2.351c0.528 1.628-1.208 5.515 1.175 5.288-1.067-4.004 1.643-4.231 2.35-6.461-1.849-0.282-2.297 0.837-3.525 1.173zm4.112 3.527c1.993-0.552 1.917-3.175 2.937-4.7-2.175 0.371-3.275 1.815-2.937 4.7zm26.438 2.938c5.452-0.366 12.392 2.61 13.513-2.938-3.333-3.244-12.629-1.638-13.511 2.938zm38.191 0c1.217-0.352 3.858 0.724 4.112-0.588-1.34-1.75-2.97-0.813-4.11 0.588zm-69.33 4.7c3.114 0.05 5.781-4.155 3.526-5.876-0.627 2.505-3.316 2.95-3.526 5.876zm64.04-3.526c1.824 0.772 1.676-0.158 4.112 0 0.22-2.994-4.33-2.994-4.11 0zm-18.21 0.588c4.062 2.94 13.43 2.548 15.273-2.35-5.24 1.874-11.52-0.92-15.27 2.35zm-51.704 0c2.524-1.554 1.03 1.349 2.938 1.762 0.124-0.66 0.651-0.914 1.175-1.174 0.131-1.112-0.662-1.298-0.588-2.35-1.786-0.024-3.867-0.342-3.525 1.762zm67.564 1.762c-0.366 1.592-2.455 1.463-2.35 3.526 7.133 1.401 17.19 0.777 21.149-2.938 2.538 1.482 5.262-1.2 5.876-3.526-7.65-0.744-15.09 3.693-24.68 2.938zm-26.438 0c3.978 0.846-0.411 0.354 0 1.762 1.549 3.029 9.397 2.037 11.162 0 0.09-3.876-9.088-3.854-11.158-1.762zm-42.302 4.113c-0.006-0.863 0.223-4.81-0.586-2.938 0.006 0.861-0.223 4.808 0.586 2.938zm55.23 0c3.098 0.89 9.617 1.32 9.399-2.938-3.35 0.766-8.93-0.707-9.4 2.938zm-9.99 1.763c-2.032-0.734-5.02-2.905-7.051-1.762 0.825 1.741 3.592 1.889 1.763 4.7 4.116 1.308 10.853 2.591 13.511 0.585 0.19-4.097-4.288-3.54-8.22-3.523zm38.77 0c1.81 1.102-1.486 1.981-1.762 2.938-7.177-0.029-11.14 0.258-14.102-2.35-0.971 0.007-0.328 1.628-1.174 1.762-1.109-0.064-0.409-1.943-1.762-1.762 0.229 3.414-7.483-2.34-6.464 4.112 8.994 1.233 20.977 3.136 29.963-0.588 0.418-2.128 2.049-3.043 2.35-5.288-2-1.265-5.43 0.203-7.06 1.176zm33.49 31.724c-4.886-6.144 6.505-12.985 5.876-21.737-0.32-4.435-4.011-11.903-10.575-8.814-3.209-2.384-7.895-2.587-12.927-1.762-3.619 3.371-7.92 4.997-9.399 9.4-2.037 6.065 0.447 13.158 2.938 17.625 3.626 6.505 7.496 9.108 12.926 12.926 5.835 4.102 11.85 9.971 17.625 12.338 11.114 9.583 23.007 24.359 17.038 44.062-3.653 3.008-5.61 7.707-11.752 8.224-4.781-2.546-2.326-9.744-2.936-14.1-0.479-3.404-2.661-7.346-4.702-11.161-2.567-4.811-4.978-11.303-7.05-15.276-6.556-2.168-10.817-6.49-16.45-9.399-2.029-1.05-4.126-1.188-5.876-2.35-1.486-0.992-2.553-3.097-4.111-4.114-1.562-1.019-4.652-2.186-7.05-3.524-6.13-3.428-6.794-4.066-12.338-1.762-5.336 2.216-8.37 3.936-12.926 5.874-1.683-1.057-3.935-1.547-5.286-2.938-2.01 0.536-3.641 1.454-5.876 1.765-2.938-1.991-4.877-2.176-9.4-1.765-3.592-0.913-4.59-4.417-8.226-5.288-0.423 3.097 2.081 4.304 2.35 7.053 0.349 3.553-2.027 7.506-1.175 12.338 1.594 2.321 3.919 3.913 5.875 5.873 6.974 2.242 11.611-2.333 17.038-1.174-1.26 1.872-5.237 1.028-5.874 3.524 2.376-0.48 9.383-1.925 9.988 1.176-2.082 0.992-6.034-0.794-8.814 0.586 1.109 7.645 7.411 5.407 14.1 4.114 3.177 1.525 3.002 6.399 5.876 8.224 2.777 0.43 3.862-0.837 5.287-1.762v-5.874c3.163-5.642 8.093-9.594 15.276-9.402 5.429 0.146 10.096 4.299 15.273 4.114-2.653 2.247 1.233 0.923 1.176 3.523-1.045 0.523-1.494 1.641-3.526 1.177-0.187-1.363 0.096-2.257 0.589-2.938-1.38 0.187-2.204 0.928-4.112 0.588-9.067-7.174-23.296-4.413-21.737 9.4 0.482 4.276 4.532 7.927 3.523 14.1 2.948 7.04 9.553 10.423 12.926 17.037 1.05 1.411 2.905 0.223 2.351 4.114-0.66 0.122-0.916 0.65-1.177 1.174-1.843 0.277-1.551-1.58-2.936-1.762-5.056 2.914-13.382-0.586-20.563 0.588-2.861-4.915-8.25-2.011-13.512-2.938-1.537 2.967-6.794 2.213-8.226 5.285-0.619 2.761 1.981-0.963 2.35 1.176 0.696 0.173 2.219 2.367 2.938 0.589-1.286-0.087-1.262-1.48-1.176-2.938 2.434-0.815 4.535-3.751 7.05-1.174-1.516 0.832-4.649 0.048-4.7 2.348 15.88 2.924 31.527 0.822 46.413 1.765 2.047-0.307 1.172-3.531 4.114-2.938 2.998-0.647 0.526 4.172 3.524 3.526 3.741-3.512-3.419-3.228-3.524-6.464 1.109-0.065 0.406-1.941 1.762-1.763 4.915 1.155 6.102 4.098 10.576 4.7 7.811 1.055 11.093-3.251 17.038-8.226 6.244-5.226 10.643-10.786 11.749-19.388 1.131-8.798-3-21.278-7.05-27.025-1.286-1.822-3.603-2.874-5.287-4.7-1.758-1.902-2.929-4.354-4.7-5.873-7.146-6.137-16.696-9.972-24.088-15.864-4.716-3.758-7.085-9.166-10.575-12.926-7.779-16.987 22.538-31.262 21.737-9.985 4.367-1.64-0.938-6.199-0.588-9.402 7.119 5.766 0.801 15.159-2.351 21.737 3.191-2.902 7.76-8.357 7.638-14.099-0.078-3.78-2.878-5.788-2.938-8.812 5.047 2.199 4.525 10.734 2.938 16.45-3.88 2.291-8.52 12.141-2.35 12.911zm-35.83-31.136c0.679 1.43 2.766-0.657 1.174-1.176-0.01 0.776-1.03 0.537-1.17 1.176zm-26.44 2.35c1.109 0.131 1.296-0.663 2.35-0.588 0.275-1.843-1.478-1.656-2.35-2.35-0.76 0.772-0.76 2.165 0 2.938zm-22.329 5.873c0.839-0.141 0.991-0.966 1.763-1.174-0.21-2.728-2.001-3.875-4.113-4.7-0.977 1.705-0.253 5.886 2.35 5.874zm5.288-0.588c4.436-0.113 11.789 5.623 13.513-0.586-0.542-2.199-4.717-0.768-7.05-1.176-2.764-0.76-4.953-2.099-8.813-1.762-0.102 2.063 1.986 1.932 2.352 3.524zm35.841 1.176c-6.66-0.708-13.963-3.401-19.976-2.938-0.031 0.751-0.753 0.815-0.588 1.762 5.271 3.739 14.066 3.954 21.738 5.288 2.082 0.318 1.446-2.08 3.525-1.762 1.482 2.362 4.978 0.478 7.05 0-2.08-3.923-7.64-1.912-11.75-2.35zm-44.066 4.7c0.125-0.66 0.652-0.916 1.175-1.174 0.166-2.713-1.926-3.167-3.525-4.114-1.554 2.13 0.269 4.942 2.35 5.288zm95.176-1.174c0.801-0.794 1.119-4.103-0.588-4.114 0.35 1.217-0.72 3.861 0.59 4.114zm-14.69 2.936c3.302 0.954 5.085-5.224 2.351-6.462 0.28 3.218-2.63 3.247-2.35 6.462zm-72.848-5.874c0.031 1.011-0.453 1.506-1.176 1.762-0.75-0.034-0.812-0.753-1.762-0.588 2.292 3.708 13.598 7.48 15.276 2.938-2.831-2.653-8.341-2.627-12.338-4.112zm15.278 2.35c-1.365 1.937 2.204 3.005 4.7 2.938 7.067 3.873 19.75 7.822 29.961 4.7 0.487-1.662-0.827-1.523-0.586-2.938-4.535-0.237-6.395 1.497-8.227-1.176-0.511 0.86-0.879 1.862-2.35 1.764-0.806-1.568-3.313-0.813-5.288-0.588-2.586-1.721-7.181-1.435-9.399-3.526-0.093 0.691 0.101 1.669-0.588 1.764-0.22-2.087-5.17-4.006-8.21-2.938zm-27.029 3.524c0.341-2.493-1.583-2.725-2.937-3.524-0.839 1.131-0.032 4.382 2.937 3.524zm6.463 0.588c4.453 1.714 8.099 6.378 13.512 5.288 0.925-4.057-2.438-3.827-5.286-4.112-2.413-1.702-5.021-3.208-8.226-4.114v2.941zm3.525 5.285c-2.913-1.686-5.519-6.498-8.812-5.876 3.58 4.291 7.715 11.035 14.688 9.988-0.114-3.21-3.277-3.38-5.876-4.11zm77.551-2.935c0.251-1.119 1.265-1.475 1.174-2.938-1.74-0.698-2.52 2.477-1.17 2.938zm-61.69-1.762c-0.59-0.002-0.698 0.476-1.174 0.588-0.189 3.253 3.498 2.477 5.874 3.524 5.656 2.493 13.426 5.364 19.388 5.876 3.371 0.289 8.628 0.975 9.399-3.526-12.14 1.46-25.05-4.229-33.49-6.457zm-5.287 6.467c5.061 2.202 13.727 7.136 20.564 8.226 2.419 0.385 7.478 1.862 8.224-2.35-10.593-1.353-18.762-5.13-27.611-8.226 0.428 1.6-1.168 1.18-1.176 2.35zm32.897 6.46c0.217 3.349-3.065 3.204-2.938 6.461 3.761 3.892 9.153 5.823 13.512 8.812 3.526 2.417 6.285 5.661 9.402 7.05 1.448 0.648 3.146 0.34 4.699 1.177 1.274 0.686 2.778 2.931 4.7 4.111 2.254 1.387 5.348 1.671 7.05 2.938 4.281 3.188 3.895 7.033 5.874 11.749 3.37 8.03 10.57 14.994 8.813 27.614 9.34-1.624 10.129-16.299 8.227-23.5-6.393-24.164-40.606-29.616-49.352-51.701-0.753-0.034-0.815-0.753-1.764-0.588-0.86 3.84-3.29 6.1-8.22 5.88zm-46.996 2.93c-2.015-3.272-6.527-4.047-8.225-7.638 0.511 4.47 3.181 9.64 8.225 7.64zm11.161-5.28c-1.016 2.838 4.494 4.894 6.464 5.874 5.202 2.591 17.398 11.486 20.561 1.762-4.633-1.437-10.244-1.896-14.1-4.112 0.928 2.489-2.438 2.096-2.35 0.588 0.922-0.055 2.037 0.077 1.762-1.176-1.461 0.091-1.817-0.923-2.936-1.174 0.6 1.652 0.667 2.503-1.765 2.35-0.65-2.273 2.078-2.089 0.588-3.526-2.666-1.1-0.798 2.335-2.938 1.764-1.47-1.179 2.29-2.732-1.174-2.938-0.101 2.79-2.322-0.2-4.113 0.6zm77.555 4.11c0.177-1.549-0.815-1.929-2.35-1.762-0.18 1.54 0.81 1.93 2.35 1.76zm-78.728 4.7c4.344 3.753 14.7 12.787 18.8 5.288-4.671 0.717-6.713-4.657-9.988-1.765-0.978-1.166 0.053-0.745 0-2.35-2.938-0.698-2.959-1.972-5.874-1.174-0.516-1.04-1.862-1.716-0.588-2.938-2.981 0.315-1.595-0.498-2.35-1.762-1.795 0.423-2.142-0.6-3.525-0.588 0.201 3.18 1.241 3.31 3.529 5.29zm-7.638-1.76v1.762c1.98 1.509 8.57 11.592 10.576 5.288-3.701 1.021-2.61-3.397-5.288-1.765 0.114-2.789-3.302-2.701-1.763-5.285-1.848 0.29-2.297-1.28-3.525 0zm1.175 8.22c0.257-2.011-2.659-5.429-5.288-6.462-1.389 3.14 2.54 5.55 5.288 6.46zm-10.575 53.46c0.24 2.204 1.578 4.124 1.175 6.464-0.704 4.088-6.189 7.098-5.875 11.75 0.115 1.711 1.371 2.223 1.762 4.699h15.863c0.438-6.733 4.95-5.359 9.401-7.638 2.768-1.417 3.753-3.65 5.874-4.111 3.442-0.748 5.819 0.528 9.4 1.762 6.763 2.331 14.807 4.915 24.09 3.526-1.611-5.085-6.531-7.54-9.402-11.75-3.215-4.719-2.706-10.306-5.285-16.452-2.84-0.294-3.261 1.834-5.876 1.765-3.771-1.889-4.812-8.735-8.812-9.402-3.045-0.507-4.147 2.895-8.226 2.938-3.937-2.329-4.764-7.768-7.638-11.162-6.734 0.469-10.057-2.477-14.688-4.114-1.86 9.83-2.887 21.42-1.764 31.71zm-23.5 15.28c0.889-1.46 5.061 0.361 5.875-1.174-1.765-1.3-6.654 0.17-5.875 1.17zm39.361 6.46c4.409-0.165 8.857-5.189 13.514-7.05 0.72 0.188 3.629-0.093 1.762-0.586-6.738 0.91-11.332 3.95-15.275 7.64zm-45.236-2.93c2.507-0.234 2.557-2.926 4.7-3.526h-4.113c0.426 1.8-1.014 1.73-0.587 3.53zm81.661 21.73c1.284-0.184 2.529-1.384 4.114-1.762 1.965-0.474 3.995-0.117 5.874-0.588 7.398-1.86 12.631-4.528 18.213-7.05 2.083-0.942 7.865-1.365 5.877-4.7-35.553 2.219-69.229-1.666-105.75 0 16.41 10.2 45.49 17.87 71.68 14.1z"/>
</g>
<metadata><rdf:RDF><cc:Work><dc:format>image/svg+xml</dc:format><dc:type rdf:resource="http://purl.org/dc/dcmitype/StillImage"/><cc:license rdf:resource="http://creativecommons.org/licenses/publicdomain/"/><dc:publisher><cc:Agent rdf:about="http://openclipart.org/"><dc:title>Openclipart</dc:title></cc:Agent></dc:publisher><dc:title>sphinx</dc:title><dc:date>2009-04-19T16:31:37</dc:date><dc:description>L'Arte Du Livre by Charles Holme&#xD;\nLe Studio, LTD&#xD;\n1914</dc:description><dc:source>http://openclipart.org/detail/25110/sphinx-by-johnny_automatic-25110</dc:source><dc:creator><cc:Agent><dc:title>johnny_automatic</dc:title></cc:Agent></dc:creator><dc:subject><rdf:Bag><rdf:li>clip art</rdf:li><rdf:li>clipart</rdf:li><rdf:li>egypt</rdf:li><rdf:li>externalsource</rdf:li><rdf:li>history</rdf:li><rdf:li>image</rdf:li><rdf:li>media</rdf:li><rdf:li>myth</rdf:li><rdf:li>png</rdf:li><rdf:li>public domain</rdf:li><rdf:li>sphinx</rdf:li><rdf:li>svg</rdf:li></rdf:Bag></dc:subject></cc:Work><cc:License rdf:about="http://creativecommons.org/licenses/publicdomain/"><cc:permits rdf:resource="http://creativecommons.org/ns#Reproduction"/><cc:permits rdf:resource="http://creativecommons.org/ns#Distribution"/><cc:permits rdf:resource="http://creativecommons.org/ns#DerivativeWorks"/></cc:License></rdf:RDF></metadata></svg>
